<?xml version="1.0" encoding="utf-8"?>
<!-- Generator: Adobe Illustrator 23.0.1, SVG Export Plug-In . SVG Version: 6.00 Build 0)  -->
<svg version="1.1" id="Layer_1" xmlns="http://www.w3.org/2000/svg" xmlns:xlink="http://www.w3.org/1999/xlink" x="0px" y="0px"
	 viewBox="0 0 300 300" style="enable-background:new 0 0 300 300;" xml:space="preserve">
<style type="text/css">
	.st0{fill:#FFFFFF;}
</style>
<g>
	<g>
		<g>
			<circle class="st0" cx="97" cy="229.7" r="6.4"/>
			<circle class="st0" cx="202.2" cy="229.7" r="6.4"/>
			<path class="st0" d="M150,0C67.2,0,0,67.2,0,150s67.2,150,150,150c82.8,0,150-67.2,150-150S232.8,0,150,0z M109,207.7h93.2
				c12.1,0,22,9.9,22,22s-9.9,22-22,22c-12.1,0-22-9.9-22-22c0-2.2,0.3-4.4,1-6.4H118c0.6,2,1,4.2,1,6.4c0,12.1-9.9,22-22,22
				s-22-9.9-22-22c0-10.8,7.9-19.8,18.2-21.6l-3.9-21.3l0-0.2L68.9,85.2L50,85.3l-0.1-15.6l31.6-0.2l7.7,37.9l141.8,17l-18,68.7
				H106.4L109,207.7z"/>
		</g>
	</g>
</g>
</svg>
